<?xml version="1.0" encoding="UTF-8" standalone="no"?>
<svg
   xmlns:dc="http://purl.org/dc/elements/1.1/"
   xmlns:cc="http://creativecommons.org/ns#"
   xmlns:rdf="http://www.w3.org/1999/02/22-rdf-syntax-ns#"
   xmlns:svg="http://www.w3.org/2000/svg"
   xmlns="http://www.w3.org/2000/svg"
   xmlns:sodipodi="http://sodipodi.sourceforge.net/DTD/sodipodi-0.dtd"
   xmlns:inkscape="http://www.inkscape.org/namespaces/inkscape"
   width="96"
   height="96"
   viewBox="0 0 96 96"
   fill="none"
   version="1.1"
   id="svg25"
   sodipodi:docname="knowledge 1.svg"
   inkscape:version="1.0.1 (3bc2e813f5, 2020-09-07)">
  <metadata
     id="metadata29">
    <rdf:RDF>
      <cc:Work
         rdf:about="">
        <dc:format>image/svg+xml</dc:format>
        <dc:type
           rdf:resource="http://purl.org/dc/dcmitype/StillImage" />
      </cc:Work>
    </rdf:RDF>
  </metadata>
  <sodipodi:namedview
     pagecolor="#ffffff"
     bordercolor="#666666"
     borderopacity="1"
     objecttolerance="10"
     gridtolerance="10"
     guidetolerance="10"
     inkscape:pageopacity="0"
     inkscape:pageshadow="2"
     inkscape:window-width="1366"
     inkscape:window-height="705"
     id="namedview27"
     showgrid="false"
     inkscape:zoom="5.6041667"
     inkscape:cx="52.262282"
     inkscape:cy="32.317089"
     inkscape:window-x="-8"
     inkscape:window-y="-8"
     inkscape:window-maximized="1"
     inkscape:current-layer="svg25" />
  <g
     clip-path="url(#clip0)"
     id="g18">
    <path
       d="M57.9867 75.1242L57.8069 75.9907L58.6418 75.6972L85.0476 66.4157L84.8818 65.9442L85.0476 66.4157C85.8937 66.1182 86.7699 65.968 87.6526 65.968C91.9664 65.968 95.4779 69.4836 95.4777 73.8055C95.4777 76.7792 93.7484 79.5452 91.0751 80.8475L60.997 95.5003H0.521698V78.9545L5.67314 73.8032L5.67315 73.8032C10.9798 68.4964 18.0329 65.575 25.5376 65.575H50.2177C54.5922 65.575 58.1519 69.1347 58.1519 73.5092C58.1519 74.0629 58.0949 74.6029 57.9867 75.1242ZM59.8157 90.8774H59.931L60.0346 90.8269L89.0508 76.6916L88.832 76.2423L89.0509 76.6916C90.1482 76.1569 90.8551 75.0261 90.8549 73.8055C90.8549 71.8114 89.1851 70.5909 87.6524 70.5909C87.2902 70.5909 86.9294 70.6545 86.5804 70.7771L86.5803 70.7771L56.2348 81.4435H32.8507V76.8206H50.2175C52.0438 76.8206 53.5288 75.3358 53.5288 73.5094C53.5288 71.6831 52.0438 70.198 50.2175 70.198H25.5376C19.2695 70.198 13.3742 72.6398 8.94198 77.072L5.29097 80.7231L5.14459 80.8694V81.0764V90.3776V90.8774H5.64436H59.8157Z"
       fill="#3C9AE4"
       stroke="#150542"
       stroke-width="0.999543"
       id="path2" />
    <path
       d="M 34.5918,39.1091 C 29.3798,34.9882 26.3829,28.8212 26.36665,22.159351 26.3668,10.204801 36.0717,0.499772 47.9997,0.499772 c 11.928,0 21.6329,9.705028 21.6331,21.633128 0,6.6513 -2.9933,12.8347 -8.215,16.9683 -1.6408,1.2989 -2.5872,3.2277 -2.5872,5.2907 v 7.1235 L 55.5351,58.36 H 40.4646 l -3.2955,-6.8446 v -7.1415 c 0,-2.0535 -0.9428,-3.9725 -2.5773,-5.2648 m 17.724,14.628 h 0.3141 l 0.1362,-0.283 1.3918,-2.8907 0.0494,-0.1027 v -0.1141 -3.1615 -0.4997 h -0.4997 -11.416 -0.4998 v 0.4997 3.1615 0.1141 l 0.0495,0.1027 1.3917,2.8907 0.1363,0.283 h 0.314 z m -4.9813,-48.60172 -2e-4,1e-5 c -4.3997,0.16708 -8.5171,2.02735 -11.5916,5.23331 -3.0744,3.2058 -4.7637,7.3996 -4.7529,11.8061 0.0128,5.2158 2.3716,10.0677 6.4693,13.3078 l 0.31,-0.3921 -0.31,0.3921 c 2.0269,1.6025 3.4125,3.7796 4.0056,6.1989 l 0.0934,0.3808 h 0.392 12.1029 0.3917 l 0.0936,-0.3804 c 0.5957,-2.4213 1.9824,-4.6005 4.01,-6.2055 l -0.3102,-0.3919 0.3102,0.3919 c 4.1053,-3.2499 6.4614,-8.115 6.4614,-13.3437 0,-9.3797 -7.6302,-17.01004 -17.01,-17.01004 -0.2207,0 -0.4445,0.00444 -0.6652,0.01272 z"
       fill="#3c9ae4"
       stroke="#150542"
       stroke-width="0.999543"
       id="path4"
       sodipodi:nodetypes="cccccsccccsccccccccccccccccccccssccccccccccscccsss" />
    <path
       d="M12.3864 19.8692H19.7444V24.492H12.3864V19.8692Z"
       fill="#3C9AE4"
       stroke="#150542"
       stroke-width="0.999543"
       id="path6" />
    <path
       d="M16.0015 6.3769L18.3129 2.37348L24.685 6.05248L22.3735 10.0559L16.0015 6.3769Z"
       fill="#3C9AE4"
       stroke="#150542"
       stroke-width="0.999543"
       id="path8" />
    <path
       d="M16.001 37.9837L22.3731 34.3047L24.6845 38.3081L18.3125 41.9871L16.001 37.9837Z"
       fill="#3C9AE4"
       stroke="#150542"
       stroke-width="0.999543"
       id="path10" />
    <path
       d="M76.2545 19.8692H83.6125V24.492H76.2545V19.8692Z"
       fill="#3C9AE4"
       stroke="#150542"
       stroke-width="0.999543"
       id="path12" />
    <path
       d="M71.3115 6.05206L77.6835 2.37305L79.995 6.37647L73.6229 10.0555L71.3115 6.05206Z"
       fill="#3C9AE4"
       stroke="#150542"
       stroke-width="0.999543"
       id="path14" />
    <path
       d="M71.3125 38.311L73.624 34.3076L79.996 37.9866L77.6845 41.99L71.3125 38.311Z"
       fill="#3C9AE4"
       stroke="#150542"
       stroke-width="0.999543"
       id="path16" />
  </g>
  <defs
     id="defs23">
    <clipPath
       id="clip0">
      <rect
         width="96"
         height="96"
         fill="white"
         id="rect20" />
    </clipPath>
  </defs>
</svg>
